<mxfile host="Electron" agent="Mozilla/5.0 (X11; Linux x86_64) AppleWebKit/537.36 (KHTML, like Gecko) draw.io/26.0.9 Chrome/128.0.6613.186 Electron/32.2.5 Safari/537.36" version="26.0.9">
  <diagram name="Page-1" id="58rL_Lo6-EcxX2WE8n46">
    <mxGraphModel dx="1114" dy="600" grid="1" gridSize="10" guides="1" tooltips="1" connect="1" arrows="1" fold="1" page="1" pageScale="1" pageWidth="850" pageHeight="1100" math="0" shadow="0">
      <root>
        <mxCell id="0" />
        <mxCell id="1" parent="0" />
        <mxCell id="zs74RiMy9CWdhOgH_saP-12" style="edgeStyle=orthogonalEdgeStyle;rounded=0;orthogonalLoop=1;jettySize=auto;html=1;entryX=0.5;entryY=1;entryDx=0;entryDy=0;" edge="1" parent="1" source="zs74RiMy9CWdhOgH_saP-2" target="zs74RiMy9CWdhOgH_saP-7">
          <mxGeometry relative="1" as="geometry" />
        </mxCell>
        <mxCell id="zs74RiMy9CWdhOgH_saP-2" value="Analog User Interface" style="rounded=0;whiteSpace=wrap;html=1;" vertex="1" parent="1">
          <mxGeometry x="690" y="130" width="120" height="60" as="geometry" />
        </mxCell>
        <mxCell id="zs74RiMy9CWdhOgH_saP-7" value="Control Unit" style="rounded=0;whiteSpace=wrap;html=1;" vertex="1" parent="1">
          <mxGeometry x="80" y="40" width="120" height="60" as="geometry" />
        </mxCell>
        <mxCell id="zs74RiMy9CWdhOgH_saP-11" style="edgeStyle=orthogonalEdgeStyle;rounded=0;orthogonalLoop=1;jettySize=auto;html=1;entryX=0.5;entryY=1;entryDx=0;entryDy=0;" edge="1" parent="1" source="zs74RiMy9CWdhOgH_saP-8" target="zs74RiMy9CWdhOgH_saP-7">
          <mxGeometry relative="1" as="geometry" />
        </mxCell>
        <mxCell id="zs74RiMy9CWdhOgH_saP-8" value="CAN module" style="rounded=0;whiteSpace=wrap;html=1;" vertex="1" parent="1">
          <mxGeometry x="250" y="230" width="120" height="60" as="geometry" />
        </mxCell>
        <mxCell id="zs74RiMy9CWdhOgH_saP-10" style="edgeStyle=orthogonalEdgeStyle;rounded=0;orthogonalLoop=1;jettySize=auto;html=1;entryX=1;entryY=0.5;entryDx=0;entryDy=0;" edge="1" parent="1" source="zs74RiMy9CWdhOgH_saP-9" target="zs74RiMy9CWdhOgH_saP-8">
          <mxGeometry relative="1" as="geometry" />
        </mxCell>
        <mxCell id="zs74RiMy9CWdhOgH_saP-9" value="Remote UI" style="rounded=0;whiteSpace=wrap;html=1;" vertex="1" parent="1">
          <mxGeometry x="690" y="230" width="120" height="60" as="geometry" />
        </mxCell>
      </root>
    </mxGraphModel>
  </diagram>
</mxfile>
